<svg width="73" height="73" viewBox="0 0 73 73" fill="none" xmlns="http://www.w3.org/2000/svg">
<circle cx="36.5" cy="36.5" r="36.5" fill="#FFFADE"/>
<path d="M36.9994 34.5134C36.0767 34.5134 35.29 34.1885 34.6394 33.5387C33.9887 32.8889 33.6643 32.1023 33.666 31.1787C33.6678 30.2552 33.9923 29.4694 34.6394 28.8214C35.29 28.1716 36.0767 27.8467 36.9994 27.8467C37.922 27.8467 38.7087 28.1712 39.3594 28.82C40.0083 29.4698 40.3327 30.2565 40.3327 31.18C40.3327 32.1027 40.0083 32.8889 39.3594 33.5387C38.7105 34.1885 37.9238 34.5129 36.9994 34.512M36.9994 33.1787C37.5478 33.1787 38.0185 32.9832 38.4114 32.592C38.8034 32.1992 38.9994 31.728 38.9994 31.1787C38.9994 30.6303 38.8034 30.16 38.4114 29.7681C38.0185 29.376 37.5478 29.18 36.9994 29.18C36.4509 29.18 35.9803 29.376 35.5874 29.7681C35.1945 30.16 34.9985 30.6307 34.9994 31.18C35.0003 31.7294 35.1963 32.1996 35.5874 32.5907C35.9803 32.9836 36.4509 33.1801 36.9994 33.1801M29.666 41.4867V39.6201C29.666 39.2396 29.7527 38.8992 29.926 38.5987C30.0994 38.2983 30.3518 38.0516 30.6834 37.8587C31.6327 37.2987 32.6372 36.8743 33.6967 36.5854C34.7572 36.2974 35.858 36.1534 36.9994 36.1534C38.1247 36.1534 39.2212 36.2974 40.2887 36.5854C41.3563 36.8734 42.3652 37.2978 43.3154 37.8587C43.63 38.0516 43.878 38.3027 44.0594 38.612C44.2416 38.9205 44.3327 39.2569 44.3327 39.6214V41.488L29.666 41.4867ZM36.9994 37.4867C36.0029 37.4867 35.0029 37.632 33.9994 37.9227C32.9958 38.2134 32.0114 38.6325 31.046 39.18V40.18H42.9527V39.1534C42.0043 38.6067 41.0238 38.1925 40.0114 37.9107C38.9998 37.6289 37.9958 37.4867 36.9994 37.4867ZM49.2994 30.8667C48.6105 29.2276 47.6452 27.7912 46.4034 26.5574C45.1616 25.3245 43.738 24.3721 42.1327 23.7001L42.6527 22.4641C44.506 23.2818 46.0732 24.3236 47.354 25.5894C48.6358 26.8561 49.7047 28.4418 50.5607 30.3467L49.2994 30.8667ZM24.6994 30.8667L23.4634 30.3467C24.2856 28.4596 25.3376 26.8796 26.6194 25.6067C27.8994 24.3338 29.4749 23.2863 31.346 22.4641L31.866 23.7001C30.2438 24.3889 28.8158 25.3503 27.582 26.5841C26.3483 27.8178 25.3865 29.2454 24.6994 30.8667ZM31.322 49.536C29.4856 48.7538 27.9096 47.6947 26.594 46.3587C25.2785 45.0227 24.2354 43.4458 23.4647 41.628L24.7007 41.1334C25.3896 42.7556 26.3509 44.1836 27.5847 45.4174C28.8185 46.6512 30.246 47.612 31.8674 48.3001L31.322 49.536ZM42.6287 49.536L42.134 48.3001C43.7563 47.6112 45.1843 46.6503 46.418 45.4174C47.6518 44.1845 48.6127 42.7565 49.3007 41.1334L50.5367 41.6534C49.7189 43.5067 48.6558 45.0867 47.3474 46.3934C46.038 47.7001 44.4652 48.7476 42.6287 49.536ZM36.9994 40.18H42.9527H31.046H36.9994Z" fill="#6B643E"/>
</svg>
