<svg width="73" height="73" viewBox="0 0 73 73" fill="none" xmlns="http://www.w3.org/2000/svg">
<circle cx="36.5" cy="36.5" r="36.5" fill="#F0E7E8" fill-opacity="0.95"/>
<path d="M51.0315 25.1172C50.8388 25.1172 50.654 25.1937 50.5177 25.33C50.3815 25.4662 50.3049 25.6511 50.3049 25.8438C50.2829 26.5802 50.1367 27.3077 49.8726 27.9956C49.3434 29.3179 48.4546 29.9609 47.1565 29.9609C45.5932 29.9609 44.5215 28.4618 43.3881 26.8743C42.1517 25.1426 40.7494 23.1797 38.4377 23.1797C36.5317 23.1797 35.1258 24.1751 34.3726 26.0581C34.1278 26.6898 33.965 27.3503 33.8883 28.0234H31.6565C31.2069 28.0234 30.7757 28.2021 30.4577 28.52C30.1398 28.8379 29.9612 29.2691 29.9612 29.7188V31.0302C27.8505 32.0684 26.1534 33.7906 25.1463 35.9163C24.1392 38.0421 23.8815 40.4462 24.415 42.7371C24.9485 45.028 26.2419 47.0708 28.0845 48.5329C29.9272 49.995 32.2105 50.7902 34.5627 50.7891H34.7504C37.0868 50.7488 39.3417 49.924 41.1526 48.4472C42.9635 46.9704 44.2251 44.9275 44.7346 42.6469C45.244 40.3664 44.9717 37.9809 43.9613 35.8739C42.951 33.7668 41.2614 32.0608 39.1643 31.0302V29.7188C39.1643 29.2691 38.9857 28.8379 38.6678 28.52C38.3498 28.2021 37.9186 28.0234 37.469 28.0234H35.3535C35.4215 27.5254 35.5496 27.0375 35.7349 26.5703C36.2653 25.2698 37.1505 24.6328 38.4377 24.6328C40.0011 24.6328 41.0715 26.132 42.2062 27.7195C43.4425 29.4511 44.8448 31.4141 47.1565 31.4141C49.0625 31.4141 50.4684 30.4187 51.2216 28.5357C51.5532 27.6757 51.7346 26.7651 51.7581 25.8438C51.7581 25.6511 51.6815 25.4662 51.5453 25.33C51.409 25.1937 51.2242 25.1172 51.0315 25.1172ZM37.7112 29.7188V31.494C37.7114 31.6352 37.7527 31.7732 37.8302 31.8913C37.9076 32.0094 38.0177 32.1023 38.1471 32.1588C40.0339 32.9823 41.5797 34.4303 42.5244 36.2594C43.4692 38.0885 43.7553 40.1872 43.3347 42.2024C42.9141 44.2177 41.8124 46.0267 40.2149 47.3252C38.6173 48.6237 36.6214 49.3326 34.5627 49.3326C32.5041 49.3326 30.5082 48.6237 28.9106 47.3252C27.3131 46.0267 26.2114 44.2177 25.7908 42.2024C25.3702 40.1872 25.6563 38.0885 26.6011 36.2594C27.5458 34.4303 29.0916 32.9823 30.9784 32.1588C31.1078 32.1023 31.2179 32.0094 31.2953 31.8913C31.3727 31.7732 31.4141 31.6352 31.4143 31.494V29.7188C31.4143 29.6545 31.4398 29.5929 31.4852 29.5475C31.5307 29.5021 31.5923 29.4766 31.6565 29.4766H37.469C37.5332 29.4766 37.5948 29.5021 37.6402 29.5475C37.6857 29.5929 37.7112 29.6545 37.7112 29.7188ZM33.7151 45.4706C33.8953 45.5003 34.0578 45.5969 34.17 45.741C34.2823 45.8851 34.3362 46.0662 34.3209 46.2482C34.3056 46.4303 34.2223 46.5999 34.0876 46.7233C33.9529 46.8467 33.7767 46.9148 33.594 46.9141C33.5535 46.9137 33.513 46.9105 33.4729 46.9044C32.1184 46.6637 30.8703 46.013 29.8975 45.0402C28.9247 44.0674 28.274 42.8194 28.0334 41.4648C28.0013 41.2747 28.046 41.0796 28.1577 40.9225C28.2694 40.7653 28.439 40.659 28.6292 40.6269C28.8193 40.5948 29.0144 40.6395 29.1715 40.7512C29.3287 40.8629 29.435 41.0325 29.4671 41.2227C29.6545 42.2807 30.1624 43.2557 30.9222 44.0155C31.682 44.7753 32.657 45.2833 33.7151 45.4706Z" fill="#BA404D"/>
<path d="M37.9735 37.425C37.9735 36.439 36.7366 35.6391 35.2107 35.6391C33.6848 35.6391 32.4478 36.4386 32.4478 37.425C32.4478 38.4114 33.2013 38.9561 35.2107 38.9561C37.2201 38.9561 38.2246 39.4663 38.2246 40.742C38.2246 42.0177 36.8752 42.528 35.2107 42.528C33.5461 42.528 32.1968 41.7284 32.1968 40.742M35.2107 34.778V43.3891" stroke="#BA404D" stroke-width="0.645833" stroke-linecap="round" stroke-linejoin="round"/>
</svg>
