<svg width="73" height="73" viewBox="0 0 73 73" fill="none" xmlns="http://www.w3.org/2000/svg">
<circle cx="36.5" cy="36.5" r="36.5" fill="#E7F0EF"/>
<g clip-path="url(#clip0_103_1560)">
<path d="M36.9967 20.8517C32.4401 20.8517 29.4862 23.9102 25.993 25.0251C24.5721 25.4795 23.8616 25.7053 23.5738 26.0249C23.286 26.343 23.2027 26.8111 23.0345 27.7442C21.2319 37.736 25.1704 46.9734 34.5624 50.5696C35.5697 50.9559 36.0742 51.1483 37.0012 51.1483C37.9283 51.1483 38.4343 50.9544 39.4431 50.5681C48.8335 46.9734 52.7676 37.736 50.9649 27.7442C50.7968 26.8111 50.7119 26.343 50.4241 26.0234C50.1363 25.7037 49.4274 25.478 48.0065 25.0251C44.5117 23.9102 41.5533 20.8517 36.9967 20.8517Z" stroke="#0F5F58" stroke-width="2.27224" stroke-linecap="round" stroke-linejoin="round"/>
<path d="M34.3474 32.9084C34.3474 32.8175 34.3596 32.2933 34.3626 31.6359C34.3626 31.033 34.3111 30.4543 34.5989 29.9241C35.6744 27.7822 38.7647 28.0003 39.5282 30.1817C39.6599 30.5407 39.669 31.1087 39.6645 31.6359C39.6599 32.307 39.6736 32.9084 39.6736 32.9084M34.4792 33.5461C32.8432 33.5461 32.0252 34.7277 31.8434 35.4548C31.6617 36.1819 31.6617 38.8177 31.7707 39.9084C32.1343 41.2717 33.0432 41.8352 33.9339 42.017C34.7519 42.0897 38.2057 42.0625 39.2055 42.0625C40.6597 42.0897 41.7504 41.5444 42.2049 39.9084C42.2957 39.363 42.3866 36.3637 42.1594 35.4548C41.6777 34.0005 40.478 33.5461 39.5691 33.5461H34.4792Z" stroke="#0F5F58" stroke-width="2.27224" stroke-linecap="round" stroke-linejoin="round"/>
</g>
<defs>
<clipPath id="clip0_103_1560">
<rect width="32" height="32" fill="white" transform="translate(21 20)"/>
</clipPath>
</defs>
</svg>
